# xmcd CD database file
#
# Track frame offsets:
#	150
#	17025
#	30375
#	44925
#	62025
#	77100
#	92337
#	104287
#	120612
#	135762
#	149712
#	166287
#	176400
#	190862
#	203487
#	215100
#
# Disc length: 3034 seconds
#
# Revision: 1
# Processed by: cddbd v1.5.2PL0 Copyright (c) Steve Scherf et al.
# Submitted via: CDex 1.51
#
DISCID=db0bd810
DTITLE=Various Artist - 典藏國語老歌05
DYEAR=2002
DGENRE=國語老歌
TTITLE0=幾時再回頭
TTITLE1=願嫁漢家郎
TTITLE2=岷江夜曲
TTITLE3=負心的人
TTITLE4=我不能沒有信心
TTITLE5=我要為你歌唱
TTITLE6=曼莉
TTITLE7=楓葉情
TTITLE8=心上人
TTITLE9=只要為你活一天
TTITLE10=在銀色月光下
TTITLE11=真情比酒濃
TTITLE12=娃娃的故事
TTITLE13=誓言
TTITLE14=回頭我也不要你
TTITLE15=今宵多珍重
EXTD=YEAR: 2002
EXTT0=
EXTT1=
EXTT2=
EXTT3=
EXTT4=
EXTT5=
EXTT6=
EXTT7=
EXTT8=
EXTT9=
EXTT10=
EXTT11=
EXTT12=
EXTT13=
EXTT14=
EXTT15=
PLAYORDER=
